HIERARCHY
ROOT Hips
{
	OFFSET -2.628224 105.513229 -1.111724
	CHANNELS 6 Xposition Yposition Zposition Xrotation Yrotation Zrotation
	JOINT Chest
	{
		OFFSET 0.021881 13.551399 1.585329
		CHANNELS 3 Xrotation Yrotation Zrotation
		JOINT Chest2
		{
			OFFSET -0.989131 21.321053 1.871037
			CHANNELS 3 Xrotation Yrotation Zrotation
			JOINT Chest3
			{
				OFFSET -0.554571 14.914124 0.285336
				CHANNELS 3 Xrotation Yrotation Zrotation
				JOINT Neck
				{
					OFFSET 0.168294 17.213821 1.507306
					CHANNELS 3 Xrotation Yrotation Zrotation
					JOINT Head
					{
						OFFSET -0.493673 10.402740 1.169199
						CHANNELS 3 Xrotation Yrotation Zrotation
						End Site
						{
							OFFSET -0.489187 10.410843 1.096709
						}
					}
				}
				JOINT LeftCollar
				{
					OFFSET 4.463901 12.930344 3.832017
					CHANNELS 3 Xrotation Yrotation Zrotation
					JOINT LeftUpArm
					{
						OFFSET 14.422139 -5.771408 -8.197087
						CHANNELS 3 Xrotation Yrotation Zrotation
						JOINT LeftLowArm
						{
							OFFSET 3.804226 -33.526230 1.117473
							CHANNELS 3 Xrotation Yrotation Zrotation
							JOINT LeftHand
							{
								OFFSET -2.267492 -27.914139 10.798457
								CHANNELS 3 Xrotation Yrotation Zrotation
								End Site
								{
									OFFSET -0.495566 -6.100800 2.360060
								}
							}
						}
					}
				}
				JOINT RightCollar
				{
					OFFSET -3.943600 12.978699 4.220215
					CHANNELS 3 Xrotation Yrotation Zrotation
					JOINT RightUpArm
					{
						OFFSET -14.110788 -6.507065 -8.187794
						CHANNELS 3 Xrotation Yrotation Zrotation
						JOINT RightLowArm
						{
							OFFSET -5.017530 -33.380951 -0.520846
							CHANNELS 3 Xrotation Yrotation Zrotation
							JOINT RightHand
							{
								OFFSET 0.262606 -28.095833 10.559833
								CHANNELS 3 Xrotation Yrotation Zrotation
								End Site
								{
									OFFSET 0.057396 -6.140625 2.307947
								}
							}
						}
					}
				}
			}
		}
	}
	JOINT LeftUpLeg
	{
		OFFSET 10.010271 -0.069824 0.456889
		CHANNELS 3 Xrotation Yrotation Zrotation
		JOINT LeftLowLeg
		{
			OFFSET 4.398479 -47.079102 -2.863716
			CHANNELS 3 Xrotation Yrotation Zrotation
			JOINT LeftFoot
			{
				OFFSET 0.925689 -43.452709 -10.562822
				CHANNELS 3 Xrotation Yrotation Zrotation
				JOINT LeftToe
				{
					OFFSET -1.372205 -16.155668 17.224140
					CHANNELS 3 Xrotation Yrotation Zrotation
					End Site
					{
						OFFSET -0.404102 -1.572452 23.599216
					}
				}
			}
		}
	}
	JOINT RightUpLeg
	{
		OFFSET -10.010275 0.069626 -0.456912
		CHANNELS 3 Xrotation Yrotation Zrotation
		JOINT RightLowLeg
		{
			OFFSET -0.351155 -47.229458 -3.642469
			CHANNELS 3 Xrotation Yrotation Zrotation
			JOINT RightFoot
			{
				OFFSET 1.438408 -42.506577 -13.845639
				CHANNELS 3 Xrotation Yrotation Zrotation
				JOINT RightToe
				{
					OFFSET -2.140429 -17.819754 15.408820
					CHANNELS 3 Xrotation Yrotation Zrotation
					End Site
					{
						OFFSET -4.993320 -3.970631 22.778431
					}
				}
			}
		}
	}
}
MOTION
Frames: 12
Frame Time: 0.033333
-4.025790 93.721748 -5.698493 8.378676 18.381955 -15.480147 20.913006 -0.258433 -4.781104 -10.154664 -7.295725 7.601949 -3.608747 5.680188 8.495531 0.088429 -18.301384 15.100592 0.000001 -0.000001 -0.000001 -1.036450 -6.076671 56.430722 -6.488284 -23.403966 83.957040 -49.115084 -11.757576 62.118945 -0.000000 0.000001 -0.000005 1.320696 23.122835 -16.977019 -33.314965 19.122969 -14.795254 -61.689237 -4.297192 15.261315 0.000003 -0.000002 -0.000000 -39.520697 -21.776696 42.011042 36.337686 -7.619861 -26.555533 -22.548644 48.347897 33.300676 -0.000000 -0.000000 0.000001 -38.536925 -0.652616 2.760175 34.535376 9.830213 29.663262 -26.012620 -30.128658 -20.555167 -0.000000 0.000003 -0.000001 
-3.987856 93.695274 -5.776046 8.322012 18.577249 -15.402843 21.038605 -0.257703 -4.881950 -10.860742 -7.227067 7.421374 -2.902720 5.678780 8.647195 -0.102228 -18.515178 15.218462 0.000000 0.000001 0.000000 -0.947534 -6.323727 56.361502 -6.441651 -23.366205 84.111157 -49.271475 -11.936410 62.277221 0.000001 0.000004 -0.000001 1.344893 23.171669 -17.078731 -33.199275 19.350068 -15.438502 -61.897592 -4.291460 15.449717 -0.000000 -0.000003 0.000001 -39.717693 -21.813462 41.871846 36.491580 -7.536076 -26.594422 -22.083549 48.176275 32.976331 0.000001 0.000002 0.000001 -38.631021 -0.544069 2.522753 34.563448 9.772484 29.820575 -26.029154 -29.995677 -20.491817 0.000001 0.000002 -0.000001 
-3.950953 93.667580 -5.850945 8.184208 18.746984 -15.367533 21.211103 -0.272290 -4.753019 -10.588107 -7.139594 7.344380 -3.022843 5.609191 8.665543 -0.307847 -18.487239 15.045952 0.000001 -0.000000 -0.000001 -1.170494 -5.893012 56.055260 -6.325706 -23.589233 84.365370 -49.040362 -11.956419 62.869016 -0.000006 0.000003 0.000000 1.492407 23.350772 -17.256888 -33.287463 19.808676 -15.795840 -62.145289 -3.972876 14.629181 0.000004 0.000000 -0.000000 -39.743655 -21.785004 41.777217 36.443615 -7.554563 -26.587246 -22.013223 48.541536 33.167474 -0.000000 0.000001 0.000001 -38.858387 -0.434304 2.329083 34.958302 9.997537 30.092912 -26.011075 -30.258681 -20.691472 0.000001 0.000001 -0.000000 
-3.922123 93.646988 -5.922278 8.365033 19.143767 -15.473150 21.092737 -0.260921 -4.576072 -10.217868 -7.197321 7.496034 -3.311911 5.642260 8.469871 -0.111389 -18.506616 15.180469 0.000001 -0.000001 0.000001 -1.029061 -5.984141 55.969207 -6.177849 -23.596733 84.463868 -48.618280 -11.931897 63.471076 -0.000001 0.000002 -0.000001 1.483918 23.030908 -17.141874 -33.267143 20.053232 -15.993089 -62.869303 -4.340557 15.789645 -0.000000 -0.000000 -0.000001 -40.005104 -21.829884 41.571864 36.431806 -7.558683 -26.427230 -21.755368 48.587422 33.018244 -0.000000 0.000000 0.000000 -38.781705 -0.432785 2.317241 34.647217 9.905006 30.204480 -25.998514 -30.607621 -20.861995 0.000000 -0.000000 -0.000000 
-3.887813 93.629684 -5.996390 8.220717 18.885543 -15.503604 21.093239 -0.266114 -4.668894 -10.242284 -7.155879 7.441320 -3.191870 5.550151 8.616347 -0.167217 -18.360167 15.047014 -0.000003 -0.000000 0.000001 -1.187857 -5.832159 56.086870 -6.380173 -23.648801 84.106854 -48.879614 -11.975691 63.265898 -0.000003 0.000004 -0.000003 1.596376 23.463640 -17.372636 -33.198589 19.771267 -15.846150 -62.426823 -4.048096 14.797304 -0.000000 -0.000003 0.000002 -39.786538 -21.829411 41.816802 36.230499 -7.443740 -26.679277 -21.770811 48.551997 33.006302 0.000002 -0.000002 -0.000001 -38.372860 -0.579983 2.565686 34.560238 9.741517 29.839590 -25.860582 -30.217703 -20.540472 0.000000 -0.000000 0.000001 
-3.856026 93.615700 -6.066494 8.185212 18.761427 -15.549095 21.449985 -0.286626 -4.513118 -10.897175 -7.078522 7.235586 -2.810746 5.734036 8.711127 -0.356821 -18.369073 14.995207 0.000001 -0.000001 -0.000000 -1.224649 -5.617217 56.015249 -6.248107 -23.519558 84.106485 -48.819265 -12.180530 63.626484 -0.000003 0.000006 -0.000001 1.685913 23.420695 -17.562616 -33.061971 19.919294 -16.006200 -62.356758 -3.446916 13.469205 0.000002 0.000002 -0.000001 -39.713008 -21.857048 41.997105 35.975583 -7.430965 -26.983422 -21.930168 48.838219 33.324462 -0.000001 0.000000 -0.000001 -38.426190 -0.643001 2.717148 34.555300 9.677015 29.584814 -25.745479 -30.109144 -20.487591 -0.000001 0.000001 -0.000002 
-3.828570 93.601624 -6.136675 8.584192 18.815715 -15.566775 21.470507 -0.278825 -4.403380 -11.508800 -7.001938 7.092265 -2.557652 5.739882 8.636679 -0.211621 -18.380852 15.166999 -0.000001 0.000001 -0.000000 -1.009270 -5.862176 56.031873 -6.015855 -23.450218 84.251060 -48.236743 -12.069849 64.187536 -0.000000 0.000005 -0.000000 1.628583 22.944837 -17.568365 -33.209469 20.326139 -16.122346 -62.226500 -3.386230 13.656397 0.000003 0.000002 -0.000001 -40.245811 -21.995303 41.691987 35.931289 -7.485475 -26.983794 -21.941117 48.561272 33.119505 0.000000 -0.000004 0.000001 -39.037161 -0.461132 2.395126 34.463447 9.784529 30.048447 -25.495742 -30.518047 -20.477554 0.000000 0.000000 -0.000004 
-3.802153 93.584251 -6.208287 8.531325 18.741506 -15.391836 21.399550 -0.287280 -4.517722 -11.318263 -6.921900 7.023093 -2.659137 5.894789 8.712371 -0.549558 -18.401650 15.119467 -0.000000 0.000001 -0.000001 -1.023296 -5.756138 55.814827 -5.875870 -23.311014 84.533625 -48.184765 -12.249893 64.724607 -0.000002 0.000006 -0.000003 1.662440 22.921736 -17.592624 -33.114116 20.464959 -16.509155 -62.017783 -3.208443 13.351799 0.000005 -0.000003 0.000002 -39.976582 -21.855106 41.752547 35.737571 -7.506240 -27.161407 -22.161085 48.734971 33.428889 0.000001 0.000001 -0.000000 -39.287736 -0.352812 2.160250 34.713788 9.942225 30.188463 -25.399708 -30.555667 -20.470949 -0.000001 0.000002 -0.000001 
-3.778573 93.572517 -6.275465 8.844795 18.787532 -15.424570 21.145292 -0.283484 -4.511257 -11.480269 -6.949432 7.017505 -2.424559 5.833418 8.715731 -0.879536 -18.408448 14.960933 0.000000 -0.000001 0.000001 -1.106681 -5.450391 55.749015 -5.885074 -23.560820 84.399432 -47.635546 -12.355186 65.826221 -0.000007 0.000006 -0.000002 1.781650 23.076689 -17.760853 -32.905235 20.536376 -16.711523 -62.166859 -2.828415 12.788030 0.000002 -0.000004 0.000000 -40.237635 -21.907272 41.635252 35.713195 -7.443785 -27.099658 -21.703696 48.782690 33.154753 0.000002 -0.000001 0.000001 -39.623597 -0.306226 2.015322 34.715137 9.804653 30.207475 -25.230601 -30.571172 -20.577528 0.000002 0.000001 -0.000001 
-3.756158 93.561600 -6.342289 8.688747 18.792762 -15.493453 21.248852 -0.281648 -4.390704 -11.777469 -6.869832 6.865934 -2.064016 5.584215 8.808863 -0.783499 -18.282111 14.875356 -0.000000 0.000000 -0.000002 -1.391118 -5.224764 55.634944 -6.054730 -24.116735 84.389460 -47.734310 -12.303564 65.451538 -0.000002 0.000002 -0.000006 1.791906 23.193031 -17.720892 -32.917677 20.430329 -16.696228 -62.516844 -3.014484 13.373853 0.000002 0.000005 -0.000003 -40.310752 -21.897829 41.574231 36.119707 -7.451112 -26.762119 -21.690478 48.423166 32.859224 0.000001 0.000001 -0.000001 -39.625561 -0.353070 2.083830 34.840535 9.883756 30.279991 -25.323536 -30.741373 -20.568430 -0.000001 0.000002 0.000000 
-3.744121 93.545982 -6.412371 8.786012 18.938161 -15.443305 21.514573 -0.288173 -4.250616 -11.208401 -6.895246 6.979241 -2.914229 5.886159 8.637172 -0.946620 -18.319500 14.881258 -0.000001 0.000000 0.000000 -0.968510 -5.811688 55.892995 -5.909606 -23.159310 84.242843 -47.452951 -12.292114 66.164418 -0.000002 0.000001 -0.000006 1.744499 22.957546 -17.848000 -32.974121 20.474609 -16.736535 -62.480924 -2.643451 12.453585 0.000003 -0.000002 0.000000 -40.487200 -21.904167 41.419964 36.083684 -7.468797 -26.737248 -21.718086 48.578904 33.026178 0.000002 0.000003 0.000001 -39.540781 -0.320923 2.013538 34.728548 9.878578 30.411469 -25.640470 -30.734485 -20.736263 0.000001 0.000003 -0.000004 
-3.739216 93.529282 -6.478501 8.950736 19.004668 -15.389811 21.280761 -0.285447 -4.365053 -10.576019 -6.994939 7.189390 -3.364059 5.907666 8.481775 -0.786341 -18.293391 14.928051 0.000000 0.000001 -0.000000 -0.961490 -5.901114 55.922645 -5.935333 -23.064106 84.395552 -47.975406 -12.267463 65.254336 -0.000000 0.000002 -0.000001 1.794250 23.171374 -17.947773 -33.010840 20.539878 -17.039826 -62.803385 -3.057384 13.133819 0.000003 0.000000 0.000000 -40.639475 -21.964500 41.366443 35.963234 -7.411840 -26.881222 -21.676544 48.519731 32.895533 -0.000002 -0.000001 -0.000001 -39.874214 -0.270167 1.899981 34.915504 9.972175 30.447115 -25.937295 -30.698446 -20.877831 -0.000000 0.000002 -0.000001 
